<svg xmlns="http://www.w3.org/2000/svg" width="128" height="128" viewBox="0 0 128 128">
  <title>BED</title>
  <path d="M117.833,63.913h-8.745a1.749,1.749,0,0,0-1.75,1.75V76.236a11.282,11.282,0,0,0-7.83-3.161H50.548a5.586,5.586,0,0,0,.419-2.121v-1.42a5.627,5.627,0,0,0-5.621-5.621H28.338a5.627,5.627,0,0,0-5.621,5.621v1.42a5.579,5.579,0,0,0,.836,2.935,11.35,11.35,0,0,0-3.636,2.346V51.75A1.749,1.749,0,0,0,18.167,50h-8a1.749,1.749,0,0,0-1.75,1.75v54.491a1.75,1.75,0,0,0,1.75,1.75h8a1.75,1.75,0,0,0,1.75-1.75V97.776h87.421v8.465a1.75,1.75,0,0,0,1.75,1.75h8.745a1.75,1.75,0,0,0,1.75-1.75V65.663A1.749,1.749,0,0,0,117.833,63.913ZM26.217,69.534a2.123,2.123,0,0,1,2.121-2.121H45.346a2.123,2.123,0,0,1,2.121,2.121v1.42a2.123,2.123,0,0,1-2.121,2.121H28.338a2.123,2.123,0,0,1-2.121-2.121Zm1.529,7.041H99.508a7.839,7.839,0,0,1,7.83,7.83v1.8H19.917v-1.8A7.838,7.838,0,0,1,27.746,76.575ZM16.417,104.491h-4.5V53.5h4.5v50.991Zm3.5-10.215v-4.57h87.421v4.57Zm96.166,10.215h-5.245V67.413h5.245Z"/>
</svg>
